<svg width="32" height="32" viewBox="0 0 32 32" fill="none" xmlns="http://www.w3.org/2000/svg">
  <rect width="32" height="32" rx="4" fill="#0E2A5C"/>
  <path d="M8 8H14V9H9V12H13V13H9V16H8V8Z" fill="white"/>
  <path d="M15 8H16V16H15V8Z" fill="white"/>
  <path d="M17 8H23V9H18V12H22V13H18V15H23V16H17V8Z" fill="white"/>
  <path d="M8 18H14V19H9V22H13V23H9V26H8V18Z" fill="#2E89CC"/>
  <path d="M15 18H16V26H15V18Z" fill="#2E89CC"/>
  <path d="M17 18H23V19H18V22H22V23H18V25H23V26H17V18Z" fill="#2E89CC"/>
</svg> 