<svg width="180" height="60" viewBox="0 0 180 60" fill="none" xmlns="http://www.w3.org/2000/svg">
  <rect width="180" height="60" rx="4" fill="transparent"/>
  <path d="M20 16.5H36V19.5H23.5V27H34V30H23.5V40.5H20V16.5Z" fill="white"/>
  <path d="M39.1758 16.5H42.6758V40.5H39.1758V16.5Z" fill="white"/>
  <path d="M47.8203 16.5H64.3203V19.5H51.3203V27H62.3203V30H51.3203V37.5H64.8203V40.5H47.8203V16.5Z" fill="white"/>
  <path d="M69.5508 16.5H85.5508C90.0508 16.5 93.0508 19.5 93.0508 24C93.0508 28 90.5508 30.5 87.0508 31L93.5508 40.5H89.5508L83.5508 31.5H73.0508V40.5H69.5508V16.5ZM85.0508 28.5C87.5508 28.5 89.5508 27 89.5508 24C89.5508 21 87.5508 19.5 85.0508 19.5H73.0508V28.5H85.0508Z" fill="white"/>
  <path d="M104.57 16.5H108.57L119.57 40.5H115.57L112.57 34H100.57L97.5703 40.5H93.5703L104.57 16.5ZM106.57 22L102.07 31H111.07L106.57 22Z" fill="#2E89CC"/>
  <path d="M123.211 16.5H126.711L139.711 35V16.5H143.211V40.5H139.711L126.711 22V40.5H123.211V16.5Z" fill="#2E89CC"/>
  <path d="M149.672 16.5H153.172V40.5H149.672V16.5Z" fill="#2E89CC"/>
  <path d="M157.219 28.5C157.219 21.5 162.719 16 169.719 16C173.719 16 176.719 17.5 179.219 20L176.719 22.5C174.719 20.5 172.719 19 169.719 19C164.719 19 160.719 23 160.719 28.5C160.719 34 164.719 38 169.719 38C172.719 38 174.719 36.5 176.719 34.5L179.219 36.5C176.719 39.5 173.719 41 169.719 41C162.719 41 157.219 35.5 157.219 28.5Z" fill="#2E89CC"/>
</svg> 